
<svg version="1.1" id="Слой_1" xmlns="http://www.w3.org/2000/svg" xmlns:xlink="http://www.w3.org/1999/xlink"
	 viewBox="0 0 426.1 122.5">
<style type="text/css">
	.AAA0{fill:none;}
	.AAA1{font-family:'Arial-Black';}
	.AAA2{font-size:155px;}
	.AAA3{letter-spacing:7;}
	.AAA4{fill:#FFFFFF;stroke:#000000;stroke-miterlimit:10;}
</style>
<rect x="-56.7" y="10.4" class="AAA0" width="182.9" height="214.8"/>
<text transform="matrix(1 0 0 1 -56.6666 121.4072)"><tspan x="0" y="0" class="AAA1 AAA2 AAA3"> </tspan><tspan x="59.3" y="0" class="AAA4 AAA1 AAA2 AAA3">A</tspan></text>
<rect x="-47.2" y="2.2" class="AAA0" width="182.9" height="214.8"/>
<text transform="matrix(1 0 0 1 -47.1676 113.209)"><tspan x="0" y="0" class="AAA1 AAA2 AAA3"> </tspan><tspan x="59.3" y="0" class="AAA4 AAA1 AAA2 AAA3">A</tspan></text>
<rect x="234.8" y="10.4" class="AAA0" width="182.9" height="214.8"/>
<text transform="matrix(1 0 0 1 234.8431 121.4072)"><tspan x="0" y="0" class="AAA1 AAA2 AAA3"> </tspan><tspan x="59.3" y="0" class="AAA4 AAA1 AAA2 AAA3">A</tspan></text>
<rect x="244.3" y="2.2" class="AAA0" width="182.9" height="214.8"/>
<text transform="matrix(1 0 0 1 244.3421 113.209)"><tspan x="0" y="0" class="AAA1 AAA2 AAA3"> </tspan><tspan x="59.3" y="0" class="AAA4 AAA1 AAA2 AAA3">A</tspan></text>
<rect x="26.5" y="10.4" class="AAA0" width="182.9" height="214.8"/>
<text transform="matrix(1 0 0 1 26.4515 121.4072)"><tspan x="0" y="0" class="AAA1 AAA2 AAA3"> </tspan><tspan x="59.3" y="0" class="AAA4 AAA1 AAA2 AAA3">A</tspan></text>
<rect x="36" y="2.2" class="AAA0" width="182.9" height="214.8"/>
<text transform="matrix(1 0 0 1 35.9515 113.209)"><tspan x="0" y="0" class="AAA1 AAA2 AAA3"> </tspan><tspan x="59.3" y="0" class="AAA4 AAA1 AAA2 AAA3">A</tspan></text>
</svg>
